<svg width="48" height="48" viewBox="0 0 48 48" fill="none" xmlns="http://www.w3.org/2000/svg">
<rect width="48" height="48" rx="14" fill="#22C55E"/>
<g filter="url(#filter0_di_110_13226)">
<path d="M41.6421 12L40.6552 14.9255H40.6436L39.5866 18.0263H31.4757L30.6582 20.4263H38.772L36.7311 26.4263H28.6173L27.0436 31.0482H27.0406L25.645 35.1533L25.3589 36H18.2815C11.6888 35.9591 6.35742 30.6044 6.35742 24C6.35742 17.4219 11.6479 12.0818 18.2085 12L25.9568 12.034L25.9188 12.145L25.4867 13.4209L25.1772 14.326L25.0371 14.7347L24.6371 15.9085H24.6342L24.2371 17.0734L23.986 17.8092L23.9101 18.034L18.3574 18C15.0436 18 12.3574 20.6861 12.3574 24C12.3574 27.3139 15.0436 30 18.3574 30H21.064L21.2275 29.5212L21.5253 28.6482L24.1268 20.9985L25.137 18.0263H25.1311L25.1399 18L25.2158 17.7752L25.391 17.2642L25.7881 16.0993H25.791L26.191 14.9255L26.3311 14.5168L26.6377 13.6146L27.0728 12.3358L27.1107 12.2248L27.1487 12.1109L27.1866 12H41.6421Z" fill="#042912"/>
<path d="M41.085 12.4004L40.3682 14.5254H40.3574L40.2646 14.7969L39.3008 17.626H31.1895L31.0967 17.8975L30.2793 20.2969L30.0996 20.8262H38.2139L36.4453 26.0264H28.3311L28.2383 26.2969L26.7568 30.6484H26.7539L26.6621 30.9189L25.2666 35.0244L25.2656 35.0254L25.0713 35.5996H18.2842C11.9112 35.5601 6.75781 30.3843 6.75781 24C6.75781 17.6414 11.8712 12.4797 18.2129 12.4004L25.3994 12.4307L25.1084 13.291L24.7988 14.1963L24.6592 14.6055H24.6582L24.3506 15.5088H24.3477L24.2559 15.7793L23.8584 16.9443L23.623 17.6318L18.3604 17.5996H18.3574C14.8226 17.5996 11.957 20.4652 11.957 24C11.957 27.5348 14.8226 30.4004 18.3574 30.4004H21.3496L21.4424 30.1289L21.6064 29.6504L21.9043 28.7773L24.5059 21.127L25.5156 18.1553L25.6953 17.626H25.6895L25.7695 17.3936L26.0742 16.499H26.0771L26.1699 16.2285L26.5693 15.0557L26.71 14.6465V14.6455L27.0166 13.7432L27.4512 12.4648L27.4736 12.4004H41.085Z" stroke="url(#paint0_linear_110_13226)" stroke-width="0.8"/>
</g>
<defs>
<filter id="filter0_di_110_13226" x="5.35742" y="12" width="37.2847" height="26" filterUnits="userSpaceOnUse" color-interpolation-filters="sRGB">
<feFlood flood-opacity="0" result="BackgroundImageFix"/>
<feColorMatrix in="SourceAlpha" type="matrix" values="0 0 0 0 0 0 0 0 0 0 0 0 0 0 0 0 0 0 127 0" result="hardAlpha"/>
<feOffset dy="1"/>
<feGaussianBlur stdDeviation="0.5"/>
<feComposite in2="hardAlpha" operator="out"/>
<feColorMatrix type="matrix" values="0 0 0 0 0 0 0 0 0 0 0 0 0 0 0 0 0 0 0.2 0"/>
<feBlend mode="normal" in2="BackgroundImageFix" result="effect1_dropShadow_110_13226"/>
<feBlend mode="normal" in="SourceGraphic" in2="effect1_dropShadow_110_13226" result="shape"/>
<feColorMatrix in="SourceAlpha" type="matrix" values="0 0 0 0 0 0 0 0 0 0 0 0 0 0 0 0 0 0 127 0" result="hardAlpha"/>
<feOffset dy="1"/>
<feGaussianBlur stdDeviation="1"/>
<feComposite in2="hardAlpha" operator="arithmetic" k2="-1" k3="1"/>
<feColorMatrix type="matrix" values="0 0 0 0 0 0 0 0 0 0 0 0 0 0 0 0 0 0 1 0"/>
<feBlend mode="normal" in2="shape" result="effect2_innerShadow_110_13226"/>
</filter>
<linearGradient id="paint0_linear_110_13226" x1="23.9998" y1="12" x2="23.9998" y2="36" gradientUnits="userSpaceOnUse">
<stop stop-color="#52FF91"/>
<stop offset="1" stop-color="#0D3F20"/>
</linearGradient>
</defs>
</svg>
