<svg width="24" height="24" viewBox="0 0 24 24" fill="none" xmlns="http://www.w3.org/2000/svg">
<mask id="mask0_117_13257" style="mask-type:alpha" maskUnits="userSpaceOnUse" x="0" y="0" width="24" height="24">
<rect width="24" height="24" fill="#D9D9D9"/>
</mask>
<g mask="url(#mask0_117_13257)">
<path d="M2.84828 16.2105C2.53161 15.523 2.29611 14.8197 2.14178 14.1005C1.98745 13.3812 1.91028 12.6452 1.91028 11.8925C1.91028 10.4817 2.17778 9.15583 2.71278 7.915C3.24778 6.67417 3.9752 5.59383 4.89503 4.674C5.81503 3.754 6.89436 3.0265 8.13303 2.4915C9.37153 1.9565 10.6962 1.689 12.107 1.689C13.518 1.689 14.8439 1.9565 16.0848 2.4915C17.3258 3.0265 18.4062 3.754 19.326 4.674C20.246 5.59383 20.9735 6.67425 21.5085 7.91525C22.0435 9.15608 22.311 10.482 22.311 11.893C22.311 13.3038 22.0435 14.6285 21.5085 15.867C20.9735 17.1057 20.246 18.185 19.326 19.105C18.4062 20.0248 17.3259 20.7522 16.085 21.2872C14.8442 21.8222 13.5184 22.0898 12.1075 22.0898C11.3549 22.0898 10.6189 22.0126 9.89953 21.8582C9.18036 21.7039 8.47703 21.4684 7.78953 21.1518L2.80978 22.6135C2.37461 22.7462 1.99545 22.6509 1.67228 22.3277C1.34911 22.0046 1.25386 21.6254 1.38653 21.1902L2.84828 16.2105ZM4.17128 19.8287L7.23978 18.9148C7.47311 18.8441 7.71853 18.8201 7.97603 18.8428C8.2337 18.8654 8.47028 18.9262 8.68578 19.025C9.21628 19.2888 9.77028 19.4864 10.3478 19.6178C10.9253 19.7491 11.511 19.8148 12.105 19.8148C14.3162 19.8148 16.1908 19.0467 17.7288 17.5105C19.2668 15.9745 20.0358 14.1018 20.0358 11.8925C20.0358 9.683 19.2668 7.80925 17.7288 6.27125C16.1908 4.73325 14.317 3.96425 12.1075 3.96425C9.8982 3.96425 8.02553 4.73325 6.48953 6.27125C4.95336 7.80925 4.18528 9.68392 4.18528 11.8952C4.18528 12.4894 4.25095 13.0732 4.38228 13.6465C4.51361 14.2198 4.71061 14.7712 4.97328 15.3005C5.09395 15.5252 5.16045 15.7633 5.17278 16.015C5.18511 16.2667 5.15595 16.5151 5.08528 16.7602L4.17128 19.8287ZM11.018 12.982V14.8027C11.018 15.1114 11.1238 15.3702 11.3353 15.579C11.5469 15.788 11.8064 15.8925 12.1135 15.8925C12.4209 15.8925 12.6793 15.7867 12.8888 15.575C13.0984 15.3633 13.2033 15.1039 13.2033 14.7967V12.982H15.018C15.3267 12.982 15.5854 12.8762 15.7943 12.6647C16.0031 12.4531 16.1075 12.1937 16.1075 11.8865C16.1075 11.5792 16.0031 11.3207 15.7943 11.1112C15.5854 10.9016 15.3267 10.7967 15.018 10.7967H13.2033V8.982C13.2033 8.67333 13.0984 8.41458 12.8888 8.20575C12.6793 7.99692 12.4209 7.8925 12.1135 7.8925C11.8064 7.8925 11.5469 7.99692 11.3353 8.20575C11.1238 8.41458 11.018 8.67333 11.018 8.982V10.7967H9.19728C8.88861 10.7967 8.62986 10.9016 8.42103 11.1112C8.21203 11.3207 8.10753 11.5792 8.10753 11.8865C8.10753 12.1937 8.21336 12.4531 8.42503 12.6647C8.6367 12.8762 8.89611 12.982 9.20328 12.982H11.018Z" fill="#1C1B1F"/>
</g>
</svg>
