<svg width="24" height="24" viewBox="0 0 24 24" fill="none" xmlns="http://www.w3.org/2000/svg">
<mask id="mask0_131_13269" style="mask-type:alpha" maskUnits="userSpaceOnUse" x="0" y="0" width="24" height="24">
<rect width="24" height="24" fill="#D9D9D9"/>
</mask>
<g mask="url(#mask0_131_13269)">
<path d="M9.20918 18.0658C8.57951 18.0658 8.04293 17.844 7.59943 17.4005C7.15593 16.957 6.93418 16.4204 6.93418 15.7907V3.93425C6.93418 3.30458 7.15593 2.768 7.59943 2.3245C8.04293 1.881 8.57951 1.65925 9.20918 1.65925H18.0657C18.6953 1.65925 19.2319 1.881 19.6754 2.3245C20.1189 2.768 20.3407 3.30458 20.3407 3.93425V15.7907C20.3407 16.4204 20.1189 16.957 19.6754 17.4005C19.2319 17.844 18.6953 18.0658 18.0657 18.0658H9.20918ZM9.20918 15.7907H18.0657V3.93425H9.20918V15.7907ZM4.93418 22.3407C4.30451 22.3407 3.76793 22.119 3.32443 21.6755C2.88093 21.232 2.65918 20.6954 2.65918 20.0658V7.07175C2.65918 6.75258 2.76893 6.48316 2.98843 6.2635C3.2081 6.044 3.47751 5.93425 3.79668 5.93425C4.11585 5.93425 4.38526 6.044 4.60493 6.2635C4.82443 6.48316 4.93418 6.75258 4.93418 7.07175V20.0658H14.9282C15.2473 20.0658 15.5168 20.1755 15.7364 20.395C15.9559 20.6147 16.0657 20.8841 16.0657 21.2033C16.0657 21.5224 15.9559 21.7918 15.7364 22.0115C15.5168 22.231 15.2473 22.3407 14.9282 22.3407H4.93418Z" fill="#1C1B1F"/>
</g>
</svg>
