<svg width="24" height="24" viewBox="0 0 24 24" fill="none" xmlns="http://www.w3.org/2000/svg">
<mask id="mask0_117_13251" style="mask-type:alpha" maskUnits="userSpaceOnUse" x="0" y="0" width="24" height="24">
<rect width="24" height="24" fill="#D9D9D9"/>
</mask>
<g mask="url(#mask0_117_13251)">
<path d="M9.20309 9.20325V19.988H16.0536V17.1913C16.0536 16.8721 16.1634 16.6028 16.3831 16.3833C16.6026 16.1636 16.8719 16.0538 17.1911 16.0538H19.9878V9.20325H9.20309ZM6.98784 19.9283V9.244C6.98784 8.61584 7.21276 8.08275 7.66259 7.64475C8.11242 7.20692 8.65217 6.988 9.28184 6.988H19.9281C20.5578 6.988 21.0943 7.20975 21.5378 7.65325C21.9813 8.09675 22.2031 8.63334 22.2031 9.263V16.199C22.2031 16.5025 22.1461 16.7918 22.0321 17.0668C21.9183 17.3418 21.7557 17.5849 21.5443 17.7963L17.7961 21.5445C17.5848 21.7558 17.3416 21.9184 17.0666 22.0323C16.7916 22.1463 16.5023 22.2033 16.1988 22.2033H9.26284C8.63317 22.2033 8.09659 21.9815 7.65309 21.538C7.20959 21.0945 6.98784 20.5579 6.98784 19.9283ZM1.82759 6.30975C1.71559 5.68409 1.83884 5.1185 2.19734 4.613C2.55584 4.10767 3.04801 3.799 3.67384 3.687L14.1888 1.82775C14.802 1.71575 15.3601 1.83717 15.8631 2.192C16.3663 2.547 16.6805 3.029 16.8058 3.638L16.9508 4.3175C17.0263 4.67867 16.9654 4.96825 16.7681 5.18625C16.5708 5.40408 16.3352 5.53367 16.0613 5.575C15.7873 5.61633 15.5239 5.5685 15.2711 5.4315C15.0181 5.2945 14.8499 5.04542 14.7666 4.68425L14.6156 4L3.99984 5.88325L5.46409 14.256C5.51792 14.5632 5.46192 14.8413 5.29609 15.0903C5.13009 15.3391 4.89251 15.4925 4.58334 15.5505C4.27401 15.6085 3.99709 15.5503 3.75259 15.376C3.50792 15.2018 3.35667 14.9571 3.29884 14.6418L1.82759 6.30975Z" fill="#1C1B1F"/>
</g>
</svg>
