<svg width="16" height="16" viewBox="0 0 16 16" fill="none" xmlns="http://www.w3.org/2000/svg">
<mask id="mask0_109_13207" style="mask-type:alpha" maskUnits="userSpaceOnUse" x="0" y="0" width="16" height="16">
<rect width="16" height="16" fill="#D9D9D9"/>
</mask>
<g mask="url(#mask0_109_13207)">
<path d="M6.40125 13.2855C7.86303 13.2855 9.10936 12.7707 10.1402 11.7412C11.1712 10.7115 11.6867 9.46444 11.6867 8C11.6867 6.53556 11.1712 5.2885 10.1402 4.25883C9.10936 3.22928 7.86303 2.7145 6.40125 2.7145C6.29492 2.7145 6.18886 2.71517 6.08308 2.7165C5.9773 2.71783 5.87969 2.72695 5.79025 2.74383C6.41569 3.46917 6.90408 4.28194 7.25542 5.18217C7.60664 6.0825 7.78225 7.02178 7.78225 8C7.78225 8.97822 7.60664 9.9175 7.25542 10.8178C6.90408 11.7181 6.41569 12.5308 5.79025 13.2562C5.87969 13.2731 5.97664 13.2822 6.08108 13.2835C6.18553 13.2848 6.29225 13.2855 6.40125 13.2855ZM6.40125 14.8022C5.98569 14.8022 5.57219 14.7579 5.16075 14.6695C4.74931 14.5812 4.35386 14.4512 3.97442 14.2797C3.83619 14.2162 3.72486 14.1216 3.64042 13.9958C3.55608 13.8701 3.51392 13.7326 3.51392 13.5833C3.51392 13.4674 3.54008 13.3577 3.59242 13.2542C3.64486 13.1506 3.72086 13.0616 3.82042 12.987C4.59553 12.3891 5.19686 11.6531 5.62442 10.7788C6.05186 9.9045 6.26558 8.97822 6.26558 8C6.26558 7.02178 6.04975 6.09828 5.61808 5.2295C5.1863 4.36083 4.58286 3.622 3.80775 3.013C3.71664 2.93845 3.64486 2.84939 3.59242 2.74583C3.54008 2.64228 3.51392 2.53256 3.51392 2.41667C3.51392 2.26745 3.55397 2.13061 3.63408 2.00617C3.7143 1.88172 3.82353 1.78778 3.96175 1.72433C4.34964 1.55278 4.74931 1.42217 5.16075 1.3325C5.57219 1.24272 5.98569 1.19783 6.40125 1.19783C7.34203 1.19783 8.22592 1.37617 9.05292 1.73283C9.88003 2.0895 10.6002 2.57445 11.2134 3.18767C11.8267 3.801 12.3117 4.52117 12.6684 5.34817C13.0251 6.17528 13.2034 7.05922 13.2034 8C13.2034 8.94078 13.0251 9.82472 12.6684 10.6518C12.3117 11.4788 11.8267 12.199 11.2134 12.8123C10.6002 13.4256 9.88003 13.9105 9.05292 14.2672C8.22592 14.6238 7.34203 14.8022 6.40125 14.8022Z" fill="#1C1B1F"/>
</g>
</svg>
