<svg width="16" height="16" viewBox="0 0 16 16" fill="none" xmlns="http://www.w3.org/2000/svg">
<mask id="mask0_109_13201" style="mask-type:alpha" maskUnits="userSpaceOnUse" x="0" y="0" width="16" height="16">
<rect width="16" height="16" fill="#D9D9D9"/>
</mask>
<g mask="url(#mask0_109_13201)">
<path d="M7.24171 1.96817V1.3015C7.24171 1.08861 7.31488 0.909 7.46121 0.762667C7.60766 0.616334 7.78727 0.543167 8.00005 0.543167C8.21282 0.543167 8.39244 0.616334 8.53888 0.762667C8.68521 0.909 8.75838 1.08861 8.75838 1.3015V1.96817C8.75838 2.18094 8.68521 2.3605 8.53888 2.50683C8.39244 2.65328 8.21282 2.7265 8.00005 2.7265C7.78727 2.7265 7.60766 2.65328 7.46121 2.50683C7.31488 2.3605 7.24171 2.18094 7.24171 1.96817ZM7.24171 14.6985V14.0318C7.24171 13.8191 7.31488 13.6395 7.46121 13.4932C7.60766 13.3467 7.78727 13.2735 8.00005 13.2735C8.21282 13.2735 8.39244 13.3467 8.53888 13.4932C8.68521 13.6395 8.75838 13.8191 8.75838 14.0318V14.6985C8.75838 14.9114 8.68521 15.091 8.53888 15.2373C8.39244 15.3837 8.21282 15.4568 8.00005 15.4568C7.78727 15.4568 7.60766 15.3837 7.46121 15.2373C7.31488 15.091 7.24171 14.9114 7.24171 14.6985ZM14.6985 8.75833H14.0319C13.8191 8.75833 13.6395 8.68517 13.4932 8.53883C13.3468 8.39239 13.2735 8.21278 13.2735 8C13.2735 7.78722 13.3468 7.60761 13.4932 7.46117C13.6395 7.31483 13.8191 7.24167 14.0319 7.24167H14.6985C14.9114 7.24167 15.091 7.31483 15.2374 7.46117C15.3837 7.60761 15.4569 7.78722 15.4569 8C15.4569 8.21278 15.3837 8.39239 15.2374 8.53883C15.091 8.68517 14.9114 8.75833 14.6985 8.75833ZM1.96821 8.75833H1.30155C1.08866 8.75833 0.909046 8.68517 0.762713 8.53883C0.61638 8.39239 0.543213 8.21278 0.543213 8C0.543213 7.78722 0.61638 7.60761 0.762713 7.46117C0.909046 7.31483 1.08866 7.24167 1.30155 7.24167H1.96821C2.18099 7.24167 2.36055 7.31483 2.50688 7.46117C2.65332 7.60761 2.72655 7.78722 2.72655 8C2.72655 8.21278 2.65332 8.39239 2.50688 8.53883C2.36055 8.68517 2.18099 8.75833 1.96821 8.75833ZM13.2544 3.82717L13.017 4.0605C12.8736 4.20128 12.6983 4.27167 12.491 4.27167C12.2837 4.27167 12.1041 4.19572 11.9522 4.04383C11.8114 3.90306 11.7389 3.729 11.7347 3.52167C11.7305 3.31444 11.7988 3.13489 11.9395 2.983L12.1895 2.733C12.333 2.581 12.5105 2.505 12.722 2.505C12.9335 2.505 13.1152 2.581 13.267 2.733C13.419 2.88489 13.4929 3.06722 13.4887 3.28C13.4844 3.49289 13.4063 3.67528 13.2544 3.82717ZM4.06055 13.017L3.81055 13.267C3.6671 13.419 3.4896 13.495 3.27805 13.495C3.0666 13.495 2.88494 13.419 2.73305 13.267C2.58105 13.1151 2.50716 12.9328 2.51138 12.72C2.51571 12.5071 2.59382 12.3247 2.74571 12.1728L2.98305 11.9395C3.12649 11.7987 3.30182 11.7283 3.50905 11.7283C3.71638 11.7283 3.89599 11.8043 4.04788 11.9562C4.18866 12.0969 4.26116 12.271 4.26538 12.4783C4.2696 12.6856 4.20132 12.8651 4.06055 13.017ZM12.1729 13.2543L11.9395 13.017C11.7988 12.8736 11.7284 12.6982 11.7284 12.491C11.7284 12.2837 11.8043 12.1041 11.9562 11.9522C12.097 11.8114 12.271 11.7389 12.4784 11.7347C12.6856 11.7304 12.8652 11.7987 13.017 11.9395L13.267 12.1895C13.419 12.3329 13.495 12.5104 13.495 12.722C13.495 12.9334 13.419 13.1151 13.267 13.267C13.1152 13.419 12.9328 13.4929 12.72 13.4887C12.5072 13.4843 12.3248 13.4062 12.1729 13.2543ZM2.98305 4.0605L2.73305 3.8105C2.58105 3.66706 2.50505 3.48956 2.50505 3.278C2.50505 3.06656 2.58105 2.88489 2.73305 2.733C2.88494 2.581 3.06727 2.50711 3.28005 2.51133C3.49294 2.51567 3.67532 2.59378 3.82721 2.74567L4.06055 2.983C4.20132 3.12644 4.27171 3.30178 4.27171 3.509C4.27171 3.71633 4.19577 3.89594 4.04388 4.04783C3.9031 4.18861 3.72905 4.26111 3.52171 4.26533C3.31449 4.26956 3.13494 4.20128 2.98305 4.0605ZM5.16671 10.8333C4.38894 10.0556 4.00005 9.11111 4.00005 8C4.00005 6.88889 4.38894 5.94444 5.16671 5.16667C5.94449 4.38889 6.88894 4 8.00005 4C9.11116 4 10.0556 4.38889 10.8334 5.16667C11.6112 5.94444 12 6.88889 12 8C12 9.11111 11.6112 10.0556 10.8334 10.8333C10.0556 11.6111 9.11116 12 8.00005 12C6.88894 12 5.94449 11.6111 5.16671 10.8333ZM9.76221 9.76217C10.243 9.28139 10.4834 8.694 10.4834 8C10.4834 7.306 10.243 6.71861 9.76221 6.23783C9.28143 5.75706 8.69405 5.51667 8.00005 5.51667C7.30605 5.51667 6.71866 5.75706 6.23788 6.23783C5.7571 6.71861 5.51671 7.306 5.51671 8C5.51671 8.694 5.7571 9.28139 6.23788 9.76217C6.71866 10.2429 7.30605 10.4833 8.00005 10.4833C8.69405 10.4833 9.28143 10.2429 9.76221 9.76217Z" fill="#1C1B1F"/>
</g>
</svg>
