<svg width="24" height="24" viewBox="0 0 24 24" fill="none" xmlns="http://www.w3.org/2000/svg">
<mask id="mask0_156_13287" style="mask-type:alpha" maskUnits="userSpaceOnUse" x="0" y="0" width="24" height="24">
<rect width="24" height="24" fill="#D9D9D9"/>
</mask>
<g mask="url(#mask0_156_13287)">
<path d="M12.0029 20.275C11.4271 20.275 10.9343 20.0704 10.5247 19.6613C10.115 19.2519 9.91016 18.7599 9.91016 18.1853C9.91016 17.6089 10.1148 17.1156 10.5242 16.7053C10.9333 16.2949 11.4252 16.0898 11.9999 16.0898C12.5777 16.0898 13.0705 16.2947 13.4782 16.7045C13.8858 17.1145 14.0897 17.6073 14.0897 18.1828C14.0897 18.7584 13.8858 19.251 13.4782 19.6605C13.0705 20.0702 12.5787 20.275 12.0029 20.275ZM12.0029 14.0898C11.4271 14.0898 10.9343 13.8851 10.5247 13.4758C10.115 13.0666 9.91016 12.5747 9.91016 12C9.91016 11.4222 10.1148 10.9294 10.5242 10.5218C10.9333 10.1141 11.4252 9.91025 11.9999 9.91025C12.5777 9.91025 13.0705 10.1141 13.4782 10.5218C13.8858 10.9294 14.0897 11.4212 14.0897 11.997C14.0897 12.5728 13.8858 13.0656 13.4782 13.4753C13.0705 13.8849 12.5787 14.0898 12.0029 14.0898ZM12.0029 7.91025C11.4271 7.91025 10.9343 7.70492 10.5247 7.29425C10.115 6.88358 9.91016 6.38983 9.91016 5.813C9.91016 5.23617 10.1148 4.744 10.5242 4.3365C10.9333 3.92883 11.4252 3.725 11.9999 3.725C12.5777 3.725 13.0705 3.92883 13.4782 4.3365C13.8858 4.744 14.0897 5.23617 14.0897 5.813C14.0897 6.38983 13.8858 6.88358 13.4782 7.29425C13.0705 7.70492 12.5787 7.91025 12.0029 7.91025Z" fill="#1C1B1F"/>
</g>
</svg>
