<svg width="24" height="24" viewBox="0 0 24 24" fill="none" xmlns="http://www.w3.org/2000/svg">
<mask id="mask0_135_13275" style="mask-type:alpha" maskUnits="userSpaceOnUse" x="0" y="0" width="24" height="24">
<rect width="24" height="24" fill="#D9D9D9"/>
</mask>
<g mask="url(#mask0_135_13275)">
<path d="M5.07187 21.2032C4.44221 21.2032 3.90562 20.9815 3.46212 20.538C3.01862 20.0945 2.79688 19.5579 2.79688 18.9282V5.07175C2.79688 4.44208 3.01862 3.9055 3.46212 3.462C3.90562 3.0185 4.44221 2.79675 5.07187 2.79675H18.9284C19.558 2.79675 20.0946 3.0185 20.5381 3.462C20.9816 3.9055 21.2034 4.44208 21.2034 5.07175V18.9282C21.2034 19.5579 20.9816 20.0945 20.5381 20.538C20.0946 20.9815 19.558 21.2032 18.9284 21.2032H5.07187ZM5.07187 18.9282H18.9284V15.9642H16.0001C15.5001 16.5976 14.9043 17.0892 14.2126 17.4392C13.521 17.7892 12.7835 17.9642 12.0001 17.9642C11.2168 17.9642 10.4793 17.7892 9.78763 17.4392C9.09596 17.0892 8.50013 16.5976 8.00013 15.9642H5.07187V18.9282ZM12.0001 15.9642C12.5215 15.9642 13.0051 15.8327 13.4511 15.5695C13.8971 15.3065 14.2579 14.954 14.5334 14.512C14.6422 14.3477 14.7783 14.2152 14.9416 14.1147C15.105 14.0144 15.2864 13.9642 15.4859 13.9642H18.9284V5.07175H5.07187V13.9642H8.51438C8.71388 13.9642 8.89529 14.0144 9.05863 14.1147C9.22196 14.2152 9.35804 14.3477 9.46688 14.512C9.74238 14.954 10.1031 15.3065 10.5491 15.5695C10.9951 15.8327 11.4788 15.9642 12.0001 15.9642Z" fill="#1C1B1F"/>
</g>
</svg>
