<svg width="16" height="16" viewBox="0 0 16 16" fill="none" xmlns="http://www.w3.org/2000/svg">
<mask id="mask0_3879_45589" style="mask-type:alpha" maskUnits="userSpaceOnUse" x="0" y="0" width="16" height="16">
<rect width="16" height="16" fill="#D9D9D9"/>
</mask>
<g mask="url(#mask0_3879_45589)">
<path d="M10.4807 11.3052L11.2602 10.5257C11.3225 10.4637 11.3537 10.3913 11.3537 10.3087C11.3537 10.226 11.3225 10.1534 11.2602 10.091L8.85884 7.67949C8.91606 7.55305 8.959 7.42121 8.98767 7.28399C9.01634 7.14677 9.03067 6.99399 9.03067 6.82566C9.03067 6.21521 8.81317 5.69316 8.37817 5.25949C7.94317 4.82582 7.41961 4.60899 6.8075 4.60899C6.69739 4.60899 6.59234 4.61455 6.49234 4.62566C6.39223 4.63677 6.29223 4.66027 6.19234 4.69616C6.10245 4.73205 6.04745 4.79916 6.02734 4.89749C6.00734 4.99571 6.03195 5.07943 6.10117 5.14866L7.28317 6.33716L6.2985 7.32182L5.10367 6.13332C5.03445 6.0641 4.95067 6.03955 4.85234 6.05966C4.75412 6.07977 4.68617 6.13538 4.6485 6.22649C4.62028 6.32771 4.59917 6.42893 4.58517 6.53016C4.57106 6.63138 4.564 6.73671 4.564 6.84616C4.564 7.45827 4.78145 7.98182 5.21634 8.41682C5.65134 8.85171 6.17489 9.06916 6.787 9.06916C6.94378 9.06916 7.0915 9.05377 7.23017 9.02299C7.36895 8.99221 7.50584 8.95038 7.64084 8.89749L10.0523 11.2987C10.1148 11.3611 10.1862 11.3934 10.2665 11.3955C10.3468 11.3976 10.4182 11.3675 10.4807 11.3052ZM8.001 14.3333C7.125 14.3333 6.30161 14.1671 5.53084 13.8347C4.76006 13.5022 4.08961 13.051 3.5195 12.4812C2.94939 11.9113 2.498 11.2411 2.16534 10.4707C1.83278 9.70021 1.6665 8.87705 1.6665 8.00116C1.6665 7.12516 1.83273 6.30177 2.16517 5.53099C2.49762 4.76021 2.94878 4.08977 3.51867 3.51966C4.08856 2.94955 4.75873 2.49816 5.52917 2.16549C6.29962 1.83293 7.12278 1.66666 7.99867 1.66666C8.87467 1.66666 9.69806 1.83288 10.4688 2.16532C11.2396 2.49777 11.9101 2.94893 12.4802 3.51882C13.0503 4.08871 13.5017 4.75888 13.8343 5.52932C14.1669 6.29977 14.3332 7.12293 14.3332 7.99882C14.3332 8.87482 14.1669 9.69821 13.8345 10.469C13.5021 11.2398 13.0509 11.9102 12.481 12.4803C11.9111 13.0504 11.2409 13.5018 10.4705 13.8345C9.70006 14.167 8.87689 14.3333 8.001 14.3333ZM7.99984 13.3333C9.48873 13.3333 10.7498 12.8167 11.7832 11.7833C12.8165 10.75 13.3332 9.48888 13.3332 7.99999C13.3332 6.5111 12.8165 5.24999 11.7832 4.21666C10.7498 3.18332 9.48873 2.66666 7.99984 2.66666C6.51095 2.66666 5.24984 3.18332 4.2165 4.21666C3.18317 5.24999 2.6665 6.5111 2.6665 7.99999C2.6665 9.48888 3.18317 10.75 4.2165 11.7833C5.24984 12.8167 6.51095 13.3333 7.99984 13.3333Z" fill="#1C1B1F"/>
</g>
</svg>
