<svg width="16" height="16" viewBox="0 0 16 16" fill="none" xmlns="http://www.w3.org/2000/svg">
<mask id="mask0_109_13213" style="mask-type:alpha" maskUnits="userSpaceOnUse" x="0" y="0" width="16" height="16">
<rect width="16" height="16" fill="#D9D9D9"/>
</mask>
<g mask="url(#mask0_109_13213)">
<path d="M1.24171 14.1953C1.04382 14.1953 0.877935 14.1284 0.744046 13.9945C0.610157 13.8606 0.543213 13.6947 0.543213 13.4967C0.543213 13.2999 0.610157 13.1349 0.744046 13.0018C0.877935 12.8687 1.04382 12.8022 1.24171 12.8022H14.7584C14.9563 12.8022 15.1222 12.8687 15.256 13.0018C15.3899 13.1351 15.4569 13.3001 15.4569 13.4968C15.4569 13.6936 15.3899 13.8592 15.256 13.9937C15.1222 14.1281 14.9563 14.1953 14.7584 14.1953H1.24171ZM2.71455 12.1355C2.29477 12.1355 1.93705 11.9877 1.64138 11.692C1.34571 11.3963 1.19788 11.0386 1.19788 10.6188V3.38117C1.19788 2.96139 1.34571 2.60367 1.64138 2.308C1.93705 2.01233 2.29477 1.8645 2.71455 1.8645H13.2855C13.7053 1.8645 14.063 2.01233 14.3587 2.308C14.6544 2.60367 14.8022 2.96139 14.8022 3.38117V10.6188C14.8022 11.0386 14.6544 11.3963 14.3587 11.692C14.063 11.9877 13.7053 12.1355 13.2855 12.1355H2.71455ZM2.71455 10.6188H13.2855V3.38117H2.71455V10.6188Z" fill="#1C1B1F"/>
</g>
</svg>
